<?xml version="1.0" encoding="UTF-8"?>
<!DOCTYPE svg PUBLIC "-//W3C//DTD SVG 1.1//EN" "http://www.w3.org/Graphics/SVG/1.1/DTD/svg11.dtd">
<svg xmlns="http://www.w3.org/2000/svg" version="1.1" width="1024px" height="1024px" style="shape-rendering:geometricPrecision; text-rendering:geometricPrecision; image-rendering:optimizeQuality; fill-rule:evenodd; clip-rule:evenodd" xmlns:xlink="http://www.w3.org/1999/xlink">
<g><path style="opacity:0.994" fill="#7522a0" d="M 511.5,-0.5 C 511.833,-0.5 512.167,-0.5 512.5,-0.5C 585.5,76.1667 658.5,152.833 731.5,229.5C 688.167,259.5 644.833,289.5 601.5,319.5C 571.51,212.847 541.51,106.181 511.5,-0.5 Z"/></g>
<g><path style="opacity:1" fill="#c285e2" d="M 509.5,1.5 C 481.168,106.794 451.835,212.127 421.5,317.5C 421.167,317.833 420.833,318.167 420.5,318.5C 379.341,289.753 338.007,261.253 296.5,233C 294.808,231.693 293.475,230.193 292.5,228.5C 296.566,225.437 299.899,221.771 302.5,217.5C 306.167,213.167 310.167,209.167 314.5,205.5C 318.898,202.105 322.564,198.105 325.5,193.5C 328.833,189.5 332.5,185.833 336.5,182.5C 340.898,179.105 344.564,175.105 347.5,170.5C 350.833,166.5 354.5,162.833 358.5,159.5C 362.898,156.105 366.564,152.105 369.5,147.5C 372.833,143.5 376.5,139.833 380.5,136.5C 384.898,133.105 388.564,129.105 391.5,124.5C 394.833,120.5 398.5,116.833 402.5,113.5C 406.898,110.105 410.564,106.105 413.5,101.5C 416.833,97.5 420.5,93.8333 424.5,90.5C 428.898,87.1053 432.564,83.1053 435.5,78.5C 438.833,74.5 442.5,70.8333 446.5,67.5C 450.898,64.1053 454.564,60.1053 457.5,55.5C 460.833,51.5 464.5,47.8333 468.5,44.5C 472.898,41.1053 476.564,37.1053 479.5,32.5C 482.833,28.5 486.5,24.8333 490.5,21.5C 494.898,18.1053 498.564,14.1053 501.5,9.5C 503.833,6.5 506.5,3.83333 509.5,1.5 Z"/></g>
<g><path style="opacity:0.918" fill="#aa66ce" d="M 501.5,9.5 C 498.564,14.1053 494.898,18.1053 490.5,21.5C 493.436,16.8947 497.102,12.8947 501.5,9.5 Z"/></g>
<g><path style="opacity:0.918" fill="#aa66ce" d="M 479.5,32.5 C 476.564,37.1053 472.898,41.1053 468.5,44.5C 471.436,39.8947 475.102,35.8947 479.5,32.5 Z"/></g>
<g><path style="opacity:0.918" fill="#aa66ce" d="M 457.5,55.5 C 454.564,60.1053 450.898,64.1053 446.5,67.5C 449.436,62.8947 453.102,58.8947 457.5,55.5 Z"/></g>
<g><path style="opacity:0.918" fill="#aa66ce" d="M 435.5,78.5 C 432.564,83.1053 428.898,87.1053 424.5,90.5C 427.436,85.8947 431.102,81.8947 435.5,78.5 Z"/></g>
<g><path style="opacity:0.918" fill="#aa66ce" d="M 413.5,101.5 C 410.564,106.105 406.898,110.105 402.5,113.5C 405.436,108.895 409.102,104.895 413.5,101.5 Z"/></g>
<g><path style="opacity:0.918" fill="#aa66ce" d="M 391.5,124.5 C 388.564,129.105 384.898,133.105 380.5,136.5C 383.436,131.895 387.102,127.895 391.5,124.5 Z"/></g>
<g><path style="opacity:0.918" fill="#aa66ce" d="M 369.5,147.5 C 366.564,152.105 362.898,156.105 358.5,159.5C 361.436,154.895 365.102,150.895 369.5,147.5 Z"/></g>
<g><path style="opacity:0.918" fill="#aa66ce" d="M 347.5,170.5 C 344.564,175.105 340.898,179.105 336.5,182.5C 339.436,177.895 343.102,173.895 347.5,170.5 Z"/></g>
<g><path style="opacity:0.918" fill="#aa66ce" d="M 325.5,193.5 C 322.564,198.105 318.898,202.105 314.5,205.5C 317.436,200.895 321.102,196.895 325.5,193.5 Z"/></g>
<g><path style="opacity:0.898" fill="#aa65cd" d="M 302.5,217.5 C 299.899,221.771 296.566,225.437 292.5,228.5C 295.101,224.229 298.434,220.563 302.5,217.5 Z"/></g>
<g><path style="opacity:1" fill="#a150cb" d="M 510.5,-0.5 C 510.833,-0.5 511.167,-0.5 511.5,-0.5C 541.51,106.181 571.51,212.847 601.5,319.5C 541.5,319.5 481.5,319.5 421.5,319.5C 451.364,553.139 481.031,786.806 510.5,1020.5C 437.239,757.53 364.239,494.363 291.5,231C 291.528,229.93 291.861,229.097 292.5,228.5C 293.475,230.193 294.808,231.693 296.5,233C 338.007,261.253 379.341,289.753 420.5,318.5C 420.833,318.167 421.167,317.833 421.5,317.5C 451.835,212.127 481.168,106.794 509.5,1.5C 509.833,0.833333 510.167,0.166667 510.5,-0.5 Z"/></g>
<g><path style="opacity:1" fill="#380d4e" d="M 731.5,229.5 C 659.074,493.427 586.074,757.094 512.5,1020.5C 541.802,786.786 571.468,553.119 601.5,319.5C 644.833,289.5 688.167,259.5 731.5,229.5 Z"/></g>
<g><path style="opacity:1" fill="#7522a0" d="M 601.5,319.5 C 571.468,553.119 541.802,786.786 512.5,1020.5C 512.5,1021.5 512.5,1022.5 512.5,1023.5C 511.833,1023.5 511.167,1023.5 510.5,1023.5C 510.5,1022.5 510.5,1021.5 510.5,1020.5C 481.031,786.806 451.364,553.139 421.5,319.5C 481.5,319.5 541.5,319.5 601.5,319.5 Z"/></g>
</svg>
