<?xml version="1.0" encoding="UTF-8"?>
<!DOCTYPE svg PUBLIC "-//W3C//DTD SVG 1.1//EN" "http://www.w3.org/Graphics/SVG/1.1/DTD/svg11.dtd">
<svg xmlns="http://www.w3.org/2000/svg" version="1.1" width="1024px" height="1024px" style="shape-rendering:geometricPrecision; text-rendering:geometricPrecision; image-rendering:optimizeQuality; fill-rule:evenodd; clip-rule:evenodd" xmlns:xlink="http://www.w3.org/1999/xlink">
<g><path style="opacity:0.991" fill="#fefffe" d="M 510.5,-0.5 C 511.167,-0.5 511.833,-0.5 512.5,-0.5C 584.532,75.5176 657.032,151.184 730,226.5C 730.875,227.873 731.375,229.373 731.5,231C 658.263,495.117 585.263,759.284 512.5,1023.5C 511.833,1023.5 511.167,1023.5 510.5,1023.5C 437.737,759.284 364.737,495.117 291.5,231C 291.625,229.373 292.125,227.873 293,226.5C 365.968,151.184 438.468,75.5176 510.5,-0.5 Z M 510.5,71.5 C 532.4,147.218 553.733,223.218 574.5,299.5C 531.924,299.309 489.424,299.643 447,300.5C 451.683,282.46 457.017,264.46 463,246.5C 467.206,229.139 471.539,211.806 476,194.5C 483.371,167.309 491.371,140.309 500,113.5C 503.82,99.5517 507.32,85.5517 510.5,71.5 Z M 456.5,116.5 C 445.361,157.055 434.527,197.722 424,238.5C 418.683,254.446 413.683,270.446 409,286.5C 385.746,270.457 362.579,254.29 339.5,238C 378.17,197.137 417.17,156.637 456.5,116.5 Z M 352.5,296.5 C 365.748,305.903 379.415,314.736 393.5,323C 396.721,326.221 399.887,329.387 403,332.5C 414.206,422.577 425.539,512.577 437,602.5C 408.518,500.569 380.351,398.569 352.5,296.5 Z M 445.5,338.5 C 489.169,339.751 532.836,339.751 576.5,338.5C 577.991,339.348 578.658,340.681 578.5,342.5C 555.672,517.114 533.172,691.781 511,866.5C 488.529,690.947 466.029,515.447 443.5,340C 444.416,339.722 445.082,339.222 445.5,338.5 Z"/></g>
</svg>
